<svg width="40" height="41" viewBox="0 0 40 41" fill="none" xmlns="http://www.w3.org/2000/svg">
<path d="M31.7034 4.77751C31.7265 4.80069 31.7265 4.80069 31.7497 4.82386C31.7497 4.80069 31.7265 4.80069 31.7034 4.77751Z" fill="#FFFAF7"/>
<path d="M31.263 4.47624C31.2167 4.45306 31.1935 4.42989 31.1472 4.40671C31.1935 4.42989 31.2399 4.45306 31.263 4.47624Z" fill="#FFFAF7"/>
<path d="M23.2909 1.27808C23.2213 1.25491 23.1286 1.25491 23.0591 1.23173C23.0127 1.23173 22.9896 1.23173 22.9432 1.20856C22.9896 1.20856 23.0127 1.20856 23.0591 1.23173C23.1286 1.23173 23.2213 1.25491 23.2909 1.27808Z" fill="#FFFAF7"/>
<path d="M28.4589 2.87717C28.2503 2.78447 28.0649 2.69177 27.8795 2.62225C28.0881 2.69177 28.2735 2.78447 28.4589 2.87717Z" fill="#FFFAF7"/>
<path d="M26.0719 1.92697C26.0255 1.9038 25.9792 1.9038 25.9328 1.88062C25.956 1.9038 26.0023 1.92697 26.0719 1.92697Z" fill="#FFFAF7"/>
<path d="M27.7404 2.55271C27.81 2.57589 27.8563 2.59907 27.8795 2.62225C27.8332 2.59907 27.81 2.57589 27.7404 2.55271Z" fill="#FFFAF7"/>
<path d="M30.2665 3.82732L30.3592 3.89684C30.4287 3.94319 30.4983 3.96637 30.5446 4.01272C30.4751 3.96637 30.4287 3.94319 30.3592 3.89684L30.2665 3.82732C30.2433 3.82732 30.2433 3.80414 30.2202 3.80414C30.2433 3.82732 30.2433 3.82732 30.2665 3.82732Z" fill="#FFFAF7"/>
<path d="M28.6674 2.99303C28.737 3.01621 28.8065 3.06256 28.8528 3.08573C28.7833 3.06256 28.7138 3.01621 28.6674 2.99303Z" fill="#FFFAF7"/>
<path d="M27.5087 2.46C27.5319 2.46 27.5319 2.46 27.555 2.48318C27.5319 2.48318 27.5319 2.48318 27.5087 2.46Z" fill="#FFFAF7"/>
<path d="M0.208556 18.1031C0.208556 18.0799 0.208556 18.0336 0.231731 18.0104C0.208556 18.0336 0.208556 18.0567 0.208556 18.1031Z" fill="#FFFAF7"/>
<path d="M0.115875 18.7752C0.115875 18.752 0.115875 18.7288 0.115875 18.7057C0.13905 18.7288 0.115875 18.752 0.115875 18.7752Z" fill="#FFFAF7"/>
<path d="M0.0231937 19.8876C0.0231937 19.9339 0.0231937 19.9571 0.0231937 20.0035C0.0231937 19.9803 0.0231937 19.9339 0.0231937 19.8876Z" fill="#FFFAF7"/>
<path d="M0.0463687 19.54V19.5168C0.0463687 19.5168 0.0463687 19.5168 0.0463687 19.54C0.0463687 19.6095 0.0231937 19.7022 0.0231937 19.7717C0.0463687 19.679 0.0463687 19.6095 0.0463687 19.54Z" fill="#FFFAF7"/>
<path d="M10.4519 27.7207C10.4519 27.7439 10.4751 27.7671 10.4751 27.7671C10.4519 27.7671 10.4519 27.7439 10.4519 27.7207Z" fill="#FFFAF7"/>
<path d="M20.7416 1.02315C21.1819 1.04632 21.6454 1.0695 22.0857 1.11585C21.6454 1.0695 21.2051 1.02315 20.7416 1.02315Z" fill="#FFFAF7"/>
<path d="M24.1947 1.44031C24.3337 1.46348 24.4496 1.48666 24.5655 1.53301C24.4496 1.48666 24.3105 1.46348 24.1947 1.44031Z" fill="#FFFAF7"/>
<path d="M33.0243 5.82037C32.978 5.79719 32.9548 5.75084 32.9084 5.72767C32.9548 5.75084 33.0011 5.79719 33.0243 5.82037Z" fill="#FFFAF7"/>
<path d="M13.4647 9.71378C15.1796 7.88296 17.2653 6.44611 19.6292 5.54229C20.3476 5.26419 21.066 5.03244 21.8076 4.87021C21.066 5.05561 20.3476 5.26419 19.6292 5.54229C17.2422 6.46929 15.1564 7.88296 13.4647 9.71378Z" fill="#FFFAF7"/>
<path d="M17.0104 35.183C15.0405 34.0011 13.3256 32.402 11.9814 30.4785C11.4948 29.7833 11.0776 29.0649 10.7068 28.3001C11.0776 29.0417 11.4948 29.7833 11.9814 30.4785C13.3256 32.3789 15.0405 33.9779 17.0104 35.183Z" fill="#FFFAF7"/>
<path d="M0 20.8377C0 20.8609 0 20.8841 0 20.9073V20.8377Z" fill="#FFFAF7"/>
<path d="M0 21.1622V21.0927C0 21.0695 0 21.0463 0 21.0463C0 21.0695 0 21.0927 0 21.0927C0 21.1159 0 21.139 0 21.1622Z" fill="#FFFAF7"/>
<path d="M33.4647 6.21436C33.511 6.26071 33.5342 6.28389 33.5805 6.30706C33.5574 6.28389 33.511 6.26071 33.4647 6.21436Z" fill="#FFFAF7"/>
<path d="M34.0209 6.72422C33.9977 6.70104 33.9745 6.67787 33.9513 6.65469C33.9513 6.67787 33.9977 6.70104 34.0209 6.72422Z" fill="#FFFAF7"/>
<path d="M33.7196 6.44609C33.6964 6.42292 33.6501 6.39974 33.6269 6.35339C33.6501 6.37657 33.6732 6.42292 33.7196 6.44609Z" fill="#FFFAF7"/>
<path d="M0 20.5133C0 20.4438 0 20.3511 0 20.2816C0 20.2584 0 20.2352 0 20.2352C0 20.2584 0 20.2816 0 20.2816C0 20.3743 0 20.4438 0 20.5133Z" fill="#FFFAF7"/>
<path d="M0.23175 17.9409L0.231731 17.9872C0.231731 18.0104 0.23175 18.0568 0.208575 18.0799L0.208556 18.1031C0.208556 18.1263 0.208575 18.1495 0.208575 18.1726L0.208556 18.2422L0.208575 18.2885C0.208575 18.358 0.1854 18.4276 0.1854 18.4971C0.1854 18.5666 0.162225 18.613 0.162225 18.6825C0.162225 18.7057 0.162225 18.7288 0.162225 18.752C0.162225 18.8215 0.13905 18.8911 0.13905 18.9606C0.13905 19.0069 0.13905 19.0765 0.115875 19.1228V19.1692C0.115875 19.1923 0.115875 19.2155 0.115875 19.2387C0.115875 19.2619 0.115875 19.285 0.115875 19.3082C0.115875 19.3314 0.115875 19.3314 0.115875 19.3546C0.115875 19.3777 0.115875 19.3777 0.115875 19.4009C0.115875 19.4241 0.115875 19.4473 0.115875 19.4704V19.4936C0.115875 19.5631 0.0926999 19.6558 0.0926999 19.7254C0.0926999 19.7717 0.0926999 19.7949 0.0926999 19.8412C0.0926999 19.8876 0.0926999 19.9108 0.0926999 19.9571C0.0926999 19.9571 0.0926999 19.9571 0.0926999 19.9803V20.0498C0.0926999 20.0962 0.0926999 20.1425 0.0926999 20.1889C0.0926999 20.212 0.0926999 20.2352 0.0926999 20.2352C0.0926999 20.3279 0.0926999 20.3974 0.0926999 20.467C0.0926999 20.4901 0.0926999 20.4901 0.0926999 20.5133V20.5365C0.0926999 20.606 0.0926999 20.6755 0.0926999 20.7219V20.8609C0 20.9305 0 20.9304 0 20.9536C0 20.9768 0 20.9768 0 21C0 21.0232 0 21.0232 0 21.0463C0 21.0695 0 21.0927 0 21.0927V21.1622V21.2086C0.0463499 25.0093 1.5759 28.5782 4.28737 31.2433C6.99884 33.9084 10.591 35.3916 14.4148 35.3916C15.0174 35.3916 15.6199 35.3453 16.2225 35.2758C16.5006 35.2526 16.7555 35.2062 17.0336 35.1599C15.0637 33.978 13.3488 32.3789 12.0046 30.4554C11.518 29.7601 11.1008 29.0417 10.73 28.2769C10.6373 28.1147 10.5678 27.9293 10.4983 27.7671C10.4983 27.7439 10.4751 27.7207 10.4751 27.7207C9.54809 25.6118 9.06141 23.3407 9.06141 21C9.06141 17.5933 10.0811 14.3256 12.0278 11.5214C12.4681 10.8725 12.9548 10.27 13.4878 9.71377C15.2028 7.88295 17.2885 6.4461 19.6524 5.54228C20.3708 5.26418 21.0892 5.03243 21.8308 4.8702C23.0591 4.56893 24.3337 4.42988 25.6315 4.42988C28.6443 4.42988 31.5411 5.241 34.0672 6.7242C34.044 6.70102 34.0209 6.67785 33.9977 6.65467C33.9745 6.6315 33.9282 6.58515 33.905 6.56198L33.8818 6.5388C33.8586 6.51562 33.8123 6.49245 33.7891 6.4461C33.7659 6.42292 33.7196 6.39975 33.6964 6.3534C33.6964 6.3534 33.6964 6.3534 33.6732 6.33022C33.6269 6.30705 33.6037 6.2607 33.5574 6.23753L33.4878 6.168C33.4415 6.12165 33.3951 6.0753 33.3256 6.02895C33.2561 5.9826 33.2097 5.93625 33.1634 5.8899C33.1402 5.86673 33.117 5.86673 33.117 5.84355C33.0707 5.82038 33.0475 5.77403 33.0012 5.75085L32.8389 5.58863C32.7926 5.54228 32.7462 5.5191 32.6999 5.47275C32.6767 5.44958 32.6304 5.4264 32.6072 5.38005C32.4913 5.28735 32.3754 5.19465 32.2827 5.12513C32.2596 5.10195 32.2132 5.07878 32.19 5.0556L32.1437 5.03243L32.1205 5.00925C32.1205 5.00925 32.1205 5.00925 32.0973 5.00925L32.0278 4.9629L32.0046 4.93973L31.9119 4.8702L31.8888 4.84703C31.8656 4.82385 31.8656 4.82385 31.8424 4.80068L31.8192 4.7775C31.7961 4.75433 31.7497 4.73115 31.7265 4.70798L31.7034 4.6848C31.6107 4.61528 31.5411 4.56893 31.4484 4.4994C31.4021 4.47623 31.3789 4.45305 31.3326 4.42988L31.3094 4.4067C31.263 4.36035 31.1935 4.33718 31.1472 4.29083C31.124 4.29083 31.124 4.26765 31.1008 4.26765C31.0545 4.24448 31.0081 4.2213 30.9849 4.19813C30.9154 4.15178 30.8691 4.1286 30.7995 4.08225C30.73 4.0359 30.6837 4.01273 30.6141 3.96638L30.5214 3.89685C30.4983 3.89685 30.4983 3.87368 30.4751 3.87368C30.4519 3.87368 30.4287 3.8505 30.4056 3.8505C30.3824 3.8505 30.3824 3.82733 30.3592 3.82733C30.3129 3.80415 30.2665 3.78098 30.2202 3.7578L30.197 3.73463C30.1738 3.73463 30.1738 3.71145 30.1506 3.71145C30.1043 3.68828 30.0579 3.6651 30.0348 3.64193C30.0348 3.64193 30.0348 3.64193 30.0116 3.64193C29.7335 3.4797 29.4322 3.34065 29.1541 3.17843H29.1309C29.0614 3.15525 28.9919 3.1089 28.9455 3.08573L28.5052 2.90033C28.5052 2.90033 28.5052 2.90033 28.482 2.90033C28.2735 2.80763 28.0881 2.71493 27.9027 2.6454C27.8563 2.62223 27.81 2.59905 27.7636 2.59905H27.7173L27.6477 2.57588C27.6246 2.57588 27.6014 2.5527 27.555 2.5527C27.5319 2.5527 27.5319 2.5527 27.5087 2.52953C27.3233 2.46 27.1611 2.39048 27.022 2.34413L26.9293 2.32095H26.9061L26.8134 2.29778C26.5585 2.20508 26.3268 2.11238 26.0487 2.04286C26.0487 2.04286 26.0487 2.04286 26.0255 2.04286C25.9791 2.01968 25.9328 2.01968 25.8864 1.99651C25.8401 1.97333 25.7937 1.97333 25.7474 1.95016C25.7242 1.95016 25.6779 1.92698 25.6547 1.92698C25.5388 1.90381 25.4461 1.85746 25.3302 1.83428C25.3071 1.83428 25.3071 1.83428 25.2839 1.83428C25.2839 1.69523 25.2607 1.69525 25.2376 1.69525L25.1912 1.69523C24.9826 1.64888 24.774 1.57936 24.5423 1.53301C24.4264 1.50983 24.2874 1.48666 24.1715 1.44031C23.9629 1.39396 23.7312 1.34761 23.5226 1.30126C23.4531 1.27808 23.3604 1.27808 23.2908 1.25491C23.2213 1.23173 23.1286 1.23173 23.0591 1.20856C23.0127 1.20856 22.9896 1.20856 22.9432 1.18538C22.8969 1.18538 22.8505 1.16221 22.8042 1.16221C22.5724 1.13903 22.3407 1.09268 22.1089 1.06951C21.6686 1.02316 21.2051 0.999982 20.7648 0.976807C20.5098 0.999982 20.2549 0.999982 20 0.999982C19.5829 0.999982 19.1425 1.02317 18.7254 1.04634C18.679 1.04634 18.6327 1.04634 18.5863 1.04634C18.1228 1.06952 17.6593 1.11586 17.1958 1.18538C17.1031 1.20856 17.0336 1.20856 16.9409 1.23173L0.23175 17.9409Z" fill="#005FA3"/>
<path d="M39.7683 24.0359V24.0127C39.7683 23.9896 39.7683 23.9664 39.7914 23.92V23.8969C39.7914 23.8505 39.8146 23.8273 39.8146 23.781V23.7346C39.8146 23.7115 39.8146 23.7115 39.8146 23.7115L39.8378 23.5956L39.861 23.5029C39.861 23.4102 39.8841 23.3407 39.8841 23.2711C39.8841 23.2016 39.9073 23.1321 39.9073 23.0626C39.9073 22.993 39.9305 22.9467 39.9305 22.9003V22.854C39.9305 22.8076 39.9305 22.7845 39.9305 22.7381V22.6918C39.9305 22.6454 39.9305 22.5991 39.9537 22.5295V22.5064C39.9537 22.4368 39.9768 22.3673 39.9768 22.2746C39.9768 22.2051 39.9768 22.1124 40 22.0429V21.9733C40 21.9038 40 21.8343 40 21.7879C40 21.6952 40 21.6257 40 21.533V21.4867C40 21.4171 40 21.3708 40 21.3013V21.1622C40 21.1159 40 21.0695 40 21C40 20.9536 40 20.8841 40 20.8378V20.7914C39.9537 16.9907 38.4241 13.4218 35.7126 10.7567C33.0012 8.09153 29.409 6.60833 25.5852 6.60833C24.7045 6.60833 23.8239 6.67786 22.9896 6.84008C24.9595 8.02201 26.6744 9.62108 28.0185 11.5446C29.9652 14.3256 30.9849 17.5933 30.9849 21.0232C30.9849 24.4299 29.9652 27.6976 28.0185 30.5017C26.1182 33.2132 23.4763 35.2989 20.394 36.4809C18.4936 37.2225 16.4774 37.5933 14.4148 37.5933C11.4021 37.5933 8.50522 36.7821 5.97915 35.2989H6.00233C6.0255 35.3221 6.0255 35.3221 6.04868 35.3453L6.09503 35.3916C6.1182 35.4148 6.16455 35.4612 6.18773 35.4843C6.23408 35.5307 6.3036 35.6002 6.37313 35.6466C6.41948 35.6929 6.46583 35.7161 6.489 35.7624C6.55853 35.832 6.62805 35.9015 6.72075 35.971C6.7671 36.0174 6.81345 36.0637 6.8598 36.1101L6.88298 36.1332L7.02203 36.2491L7.0452 36.2723C7.09155 36.2955 7.11473 36.3418 7.16108 36.365L7.20743 36.4113C7.2306 36.4345 7.27695 36.4809 7.3233 36.504H7.36965C7.39283 36.5272 7.43918 36.5504 7.46235 36.5736C7.57823 36.6663 7.67093 36.7358 7.7868 36.8285C7.80997 36.8517 7.83315 36.8748 7.85633 36.8748C7.8795 36.898 7.90268 36.9212 7.94903 36.9444C7.9722 36.9675 7.9722 36.9675 7.99538 36.9675L8.01855 36.9907C8.0649 37.0139 8.11125 37.0602 8.1576 37.0834L8.20395 37.1066C8.22712 37.1298 8.2503 37.1298 8.27347 37.1529C8.29665 37.1761 8.343 37.1993 8.36617 37.2225L8.41252 37.2456C8.50522 37.3152 8.57475 37.3615 8.66745 37.431C8.7138 37.4542 8.73697 37.4774 8.78332 37.5006L8.8065 37.5237L8.9919 37.6628C9.03825 37.686 9.0846 37.7323 9.15412 37.7555C9.20047 37.7787 9.27 37.825 9.31635 37.8482H9.50175L9.7335 38.0568C9.75667 38.0799 9.80302 38.1031 9.84937 38.1263C9.9189 38.1726 9.98842 38.219 10.0579 38.2422C10.1043 38.2653 10.1738 38.3117 10.2202 38.3349C10.5214 38.4971 10.8227 38.6593 11.124 38.7984C11.1935 38.8215 11.263 38.8679 11.3326 38.8911C11.3326 38.8911 11.3557 38.8911 11.3557 38.9142C11.4253 38.9374 11.4716 38.9838 11.5411 39.0069C11.7265 39.0996 11.9119 39.1923 12.1205 39.2619C12.1669 39.285 12.2132 39.3082 12.2596 39.3314C12.2827 39.3314 12.2827 39.3546 12.3059 39.3546C12.3754 39.3777 12.4218 39.4009 12.4913 39.4241C12.6535 39.4936 12.8158 39.54 12.978 39.6095C13.0243 39.6327 13.0939 39.6558 13.1402 39.679C13.3951 39.7717 13.6501 39.8644 13.8818 39.9339C13.9282 39.9571 13.9745 39.9571 14.0209 39.9803C14.0904 40.0035 14.1599 40.0266 14.2526 40.0498L14.3221 40.073C14.4148 40.0962 14.5075 40.1193 14.5771 40.1425C14.6234 40.1657 14.6698 40.1657 14.7161 40.1889C15.2723 40.3279 15.8285 40.467 16.3847 40.5597C16.4542 40.5828 16.5238 40.5828 16.6165 40.606C16.7092 40.6292 16.7787 40.6292 16.8482 40.6524C16.9177 40.6755 17.0104 40.6755 17.08 40.6755C18.007 40.8146 18.934 40.8609 19.8841 40.8609C20.8111 40.8609 21.7613 40.7914 22.6883 40.6755H22.7115C22.781 40.6755 22.8505 40.6524 22.9432 40.6524L39.6524 23.9432C39.7683 24.0359 39.7683 24.0359 39.7683 24.0359Z" fill="#222222"/>
</svg>
